<?xml version="1.0" encoding="utf-8"?>
<svg fill="#ffffff" width="800px" height="800px" viewBox="0 0 100 100" data-name="Layer 1" id="Layer_1" xmlns="http://www.w3.org/2000/svg" stroke="#ffffff" xmlns:bx="https://boxy-svg.com"><defs><bx:export><bx:file format="svg" path="Sem título.svg"/><bx:file format="svg" href="#SVGRepo_iconCarrier" path=".svg"/><bx:file format="svg" href="#object-0" path="Sem título 2.svg"/></bx:export></defs><g id="SVGRepo_bgCarrier" stroke-width="0"/><g id="SVGRepo_tracerCarrier" stroke-linecap="round" stroke-linejoin="round"/><g id="SVGRepo_iconCarrier" transform="matrix(1.104814, 0, 0, 1.550475, -5.240701, -70.255135)" style=""><title/><path d="M 91.586 71 L 69 93 L 8.414 93 L 35.04 71.114 L 91.586 71 Z" style="fill-rule: evenodd; stroke-miterlimit: 3.22; paint-order: stroke markers; stroke-width: 1.50643px; fill-opacity: 0; fill: rgb(0, 0, 0);" id="object-0"/></g><g id="group-1" stroke-width="0" transform="matrix(1, 0, 0, 1, 55.83551, 21.871895)"/><g id="group-2" stroke-linecap="round" stroke-linejoin="round" transform="matrix(1, 0, 0, 1, 55.83551, 21.871895)"/><g id="group-3" transform="matrix(1.644465, 0, 0, 2.222737, 46.478275, 17.991562)" style=""><path d="M12 4V20M12 4L8 8M12 4L16 8" stroke-linecap="round" stroke-linejoin="round" style="fill-rule: nonzero; fill: rgb(0, 0, 0);"/></g><g id="group-4" transform="matrix(1.644465, 0, 0, 2.222737, 31.584444, 8.453213)" style=""><path d="M12 4V20M12 4L8 8M12 4L16 8" stroke-linecap="round" stroke-linejoin="round" style="fill-rule: nonzero; fill: rgb(0, 0, 0);"/></g><g id="group-5" transform="matrix(1.644465, 0, 0, 2.222737, 16.14707, 19.235723)" style=""><path d="M12 4V20M12 4L8 8M12 4L16 8" stroke-linecap="round" stroke-linejoin="round" style="fill-rule: nonzero; fill: rgb(0, 0, 0);"/></g></svg>