<?xml version="1.0" standalone="no"?>
<!DOCTYPE svg PUBLIC "-//W3C//DTD SVG 20010904//EN"
 "http://www.w3.org/TR/2001/REC-SVG-20010904/DTD/svg10.dtd">
<svg version="1.0" xmlns="http://www.w3.org/2000/svg"
 width="450.000000pt" height="600.000000pt" viewBox="0 0 450.000000 600.000000"
 preserveAspectRatio="xMidYMid meet">

<g transform="translate(0.000000,600.000000) scale(0.100000,-0.100000)"
fill="#000000" stroke="none">

<path d="M2455 5024 c-597 -45 -1095 -263 -1481 -648 -135 -136 -199 -221
-264 -351 -75 -151 -95 -239 -95 -415 0 -132 3 -152 27 -218 65 -180 196 -325
373 -414 199 -101 509 -94 734 15 40 19 70 30 67 24 -245 -555 -319 -749 -387
-1016 -59 -229 -80 -364 -86 -552 -5 -153 -4 -171 16 -232 46 -138 169 -257
303 -293 70 -18 199 -18 273 2 307 79 582 516 670 1061 49 303 32 625 -45 848
l-19 55 27 6 c317 66 732 322 1210 745 l112 100 0 229 c0 216 -1 230 -19 240
-11 5 -27 10 -35 10 -9 0 -60 -45 -113 -101 -348 -360 -791 -688 -1045 -773
-186 -63 -242 -8 -208 202 17 109 38 178 246 808 101 309 184 575 184 592 0
17 -4 34 -10 37 -38 23 -313 48 -435 39z m313 -66 c45 -6 82 -14 82 -18 0 -3
-66 -206 -146 -451 -80 -244 -167 -511 -194 -594 -72 -219 -92 -308 -97 -420
-4 -85 -2 -105 15 -135 28 -52 73 -72 152 -67 122 9 261 72 480 219 211 141
390 289 598 492 l182 179 0 -200 0 -199 -126 -110 c-468 -406 -864 -650 -1139
-703 -33 -7 -70 -14 -81 -16 l-22 -5 25 -67 c51 -139 74 -267 80 -444 13 -368
-51 -679 -202 -984 -166 -336 -362 -488 -612 -473 -144 8 -270 93 -336 227
l-32 66 0 160 c2 373 98 725 375 1365 89 206 165 382 168 389 3 8 -21 -6 -54
-31 -83 -64 -174 -111 -274 -143 -121 -39 -320 -47 -437 -17 -231 59 -409 220
-485 441 -20 57 -23 85 -22 201 1 116 5 147 28 225 88 289 335 570 706 800
274 169 616 284 950 318 85 9 342 6 418 -5z"/>
<path d="M2337 4689 c-271 -31 -553 -138 -807 -306 -457 -303 -650 -641 -518
-911 30 -62 131 -162 193 -193 44 -21 64 -24 160 -24 92 0 119 4 167 23 236
95 538 430 670 742 29 68 238 662 238 676 0 5 -14 4 -103 -7z m23 -58 c0 -16
-188 -555 -214 -614 -87 -198 -292 -458 -464 -591 -186 -143 -378 -166 -515
-61 -58 44 -122 141 -136 204 -39 183 85 420 327 621 301 251 667 417 990 449
6 0 12 -3 12 -8z"/>
<path d="M2126 2845 c-195 -466 -343 -895 -401 -1165 -21 -94 -28 -155 -29
-248 l-1 -123 33 -30 c62 -55 148 -34 243 61 79 79 146 208 207 401 79 248
108 444 99 678 -7 208 -37 318 -116 435 l-19 29 -16 -38z m75 -213 c13 -49 22
-126 26 -212 19 -463 -188 -1056 -387 -1110 -95 -26 -112 15 -87 215 30 244
136 590 328 1069 33 83 63 155 66 160 9 14 32 -38 54 -122z"/>

</g>
</svg>
