<?xml version="1.0" standalone="no"?>
<!DOCTYPE svg PUBLIC "-//W3C//DTD SVG 20010904//EN"
 "http://www.w3.org/TR/2001/REC-SVG-20010904/DTD/svg10.dtd">
<svg version="1.0" xmlns="http://www.w3.org/2000/svg"
 width="491.000000pt" height="490.000000pt" viewBox="0 0 491.000000 490.000000"
 preserveAspectRatio="xMidYMid meet">

<g transform="translate(0.000000,490.000000) scale(0.100000,-0.100000)"
fill="#000000" stroke="none">
<path d="M2065 4303 c-290 -15 -584 -153 -768 -360 -141 -160 -255 -408 -306
-668 -65 -324 -43 -732 53 -1019 67 -199 159 -356 293 -497 195 -205 413 -322
664 -359 107 -16 310 -8 394 15 174 48 375 172 466 288 l39 49 0 -686 0 -686
234 0 233 0 252 284 c138 157 251 289 251 294 0 12 -257 224 -273 226 -7 0
-59 -50 -117 -113 l-105 -114 -3 1642 -2 1641 -210 0 -210 0 0 -187 -1 -188
-20 25 c-87 108 -154 178 -209 220 -86 64 -200 125 -280 149 -102 31 -263 50
-375 44z m192 -374 c139 -19 264 -81 376 -188 214 -203 308 -480 310 -921 2
-269 -35 -467 -120 -640 -40 -81 -61 -110 -148 -196 -99 -101 -172 -149 -275
-183 -69 -22 -187 -31 -272 -20 -158 20 -269 73 -391 188 -142 134 -226 301
-274 546 -25 129 -25 560 0 690 53 269 121 410 261 543 109 104 223 161 361
181 85 12 85 12 172 0z"/>
</g>
</svg>
